<?xml version="1.0" standalone="no"?>
<!DOCTYPE svg PUBLIC "-//W3C//DTD SVG 20010904//EN"
 "http://www.w3.org/TR/2001/REC-SVG-20010904/DTD/svg10.dtd">
<svg version="1.0" xmlns="http://www.w3.org/2000/svg"
 width="942.000000pt" height="942.000000pt" viewBox="0 0 942.000000 942.000000"
 preserveAspectRatio="xMidYMid meet">
<metadata>
Created by potrace 1.11, written by Peter Selinger 2001-2013
</metadata>
<g transform="translate(0.000000,942.000000) scale(0.100000,-0.100000)"
fill="#000000" stroke="none">
<path d="M291 9293 l-111 -128 0 -3631 0 -3631 94 -109 c52 -60 119 -136 148
-168 l54 -59 159 174 c157 170 251 271 369 398 l59 63 101 -100 c227 -222 420
-381 646 -532 52 -35 96 -64 98 -65 2 -2 -87 -171 -198 -378 -110 -206 -200
-380 -200 -385 0 -26 453 -262 704 -366 151 -63 389 -147 523 -184 l71 -20
104 415 c96 385 104 414 123 410 332 -80 511 -111 741 -128 82 -5 182 -13 222
-15 l72 -6 0 -424 0 -424 48 0 c93 0 389 21 512 35 356 43 820 147 820 184 0
9 -43 189 -95 400 -52 211 -95 389 -95 396 0 7 39 25 88 40 232 75 547 215
766 339 97 55 121 65 131 54 6 -7 94 -168 195 -358 100 -190 186 -348 189
-353 17 -18 412 262 641 454 154 129 472 438 468 455 -3 12 -81 98 -332 369
-67 71 -143 153 -170 182 -57 61 -65 38 75 204 171 204 345 453 468 672 l55
96 35 -22 c20 -12 175 -108 344 -214 170 -106 310 -193 313 -193 2 0 10 13 18
28 l14 28 -335 210 c-184 115 -340 212 -346 216 -7 4 16 62 65 165 123 253
238 561 309 821 12 45 27 82 34 82 6 0 173 -47 371 -104 197 -57 368 -106 378
-108 24 -4 30 19 85 292 67 331 102 636 116 1017 l7 183 -583 2 -584 3 -7 135
c-14 286 -45 540 -94 770 -13 63 -24 122 -24 130 0 11 139 55 555 175 427 123
555 164 555 176 0 23 -81 304 -130 449 -146 435 -378 914 -628 1295 -137 211
-287 407 -465 613 l-89 102 -3673 0 -3673 0 -111 -127z m893 -637 c47 -51 86
-96 86 -100 0 -4 -32 -44 -71 -89 -158 -183 -365 -476 -469 -665 -30 -54 -50
-80 -59 -77 -23 9 -211 128 -211 134 0 16 123 222 215 361 136 205 391 530
416 530 4 0 46 -42 93 -94z m2196 -328 c62 -253 246 -1000 435 -1763 158 -638
184 -745 180 -745 -2 0 -51 91 -111 203 -59 111 -117 220 -129 242 -13 22 -61
112 -107 200 -197 370 -859 1609 -910 1703 -22 40 -38 78 -35 85 6 16 200 122
317 173 77 34 285 112 302 113 3 1 30 -95 58 -211z m1608 177 c56 -19 143 -53
194 -76 115 -50 319 -159 324 -174 3 -6 -162 -323 -366 -705 -204 -382 -498
-932 -653 -1222 -155 -290 -283 -526 -284 -524 -6 6 671 2736 678 2736 4 0 52
-16 107 -35z m2073 -252 c103 -133 252 -354 328 -488 28 -49 51 -92 51 -95 -1
-3 -2295 -1438 -3090 -1932 l-35 -22 20 24 c11 13 431 470 934 1014 502 545
986 1070 1075 1166 240 260 262 284 396 429 l124 134 52 -56 c29 -31 94 -109
145 -174z m-4236 -379 c608 -1140 1109 -2082 1117 -2099 17 -34 -40 27 -961
1025 l-891 964 77 79 c137 139 441 382 468 374 5 -2 91 -156 190 -343z m-442
-516 c184 -200 585 -635 892 -968 307 -333 574 -623 594 -644 l36 -39 -35 20
c-52 29 -2224 1385 -2234 1394 -11 10 59 134 152 269 58 85 249 330 257 330 2
0 154 -163 338 -362z m5161 120 c112 -235 197 -462 267 -707 16 -57 27 -107
24 -109 -12 -12 -890 -261 -896 -254 -4 4 -17 43 -29 87 -35 127 -106 315
-176 467 -35 78 -62 144 -59 147 11 11 790 499 798 500 5 1 37 -59 71 -131z
m-4822 -1110 c618 -385 1130 -707 1138 -715 13 -12 11 -12 -15 -4 -24 8 -1196
348 -2290 663 -115 34 -214 64 -218 68 -10 9 52 213 109 360 42 106 143 330
150 330 2 0 508 -316 1126 -702z m-1914 96 c240 -70 439 -128 440 -130 2 -1
-3 -35 -12 -75 -30 -131 -56 -322 -68 -507 l-12 -182 -466 2 -465 3 3 115 c6
239 38 516 89 768 18 90 31 132 40 132 8 0 210 -57 451 -126z m7070 24 c53
-259 89 -555 94 -790 l3 -118 -462 0 -463 0 -1 33 c-3 159 -31 414 -65 587
-13 68 -20 127 -16 131 7 7 857 257 878 258 6 1 20 -45 32 -101z m-902 -1095
c-4 -65 -14 -176 -22 -248 -14 -127 -56 -360 -66 -370 -4 -4 -338 91 -1408
401 -438 127 -528 153 -825 239 -165 48 -302 89 -304 91 -2 2 589 4 1314 4
l1318 0 -7 -117z m-3141 23 c-75 -51 -2238 -1397 -2241 -1394 -2 2 -26 52 -53
110 -94 200 -214 550 -195 568 5 4 72 26 149 48 77 22 275 79 440 127 564 164
630 183 960 279 182 52 467 136 635 185 168 49 309 90 315 90 5 1 1 -5 -10
-13z m1620 -756 c611 -381 1113 -696 1118 -700 10 -8 -125 -227 -215 -348 -84
-114 -190 -242 -199 -242 -4 0 -137 141 -295 312 -159 172 -406 439 -549 593
-366 394 -976 1056 -1000 1085 l-20 24 25 -15 c14 -9 525 -328 1135 -709z
m-1621 -80 c-97 -388 -245 -986 -330 -1330 -85 -344 -159 -642 -165 -664 -10
-35 -13 -38 -39 -32 -96 19 -530 213 -587 262 l-21 19 655 1228 c361 675 657
1227 658 1225 2 -2 -75 -320 -171 -708z m1046 -563 c348 -653 631 -1189 629
-1191 -22 -17 -227 -124 -309 -161 -107 -47 -292 -115 -314 -115 -7 0 -20 33
-30 78 -10 42 -137 556 -283 1142 -145 586 -286 1155 -313 1265 -27 110 -52
211 -56 225 -11 45 31 -31 676 -1243z m-3576 541 c52 -170 98 -290 168 -446
34 -74 57 -137 52 -141 -19 -17 -784 -491 -792 -491 -19 0 -181 362 -249 555
-36 103 -113 358 -113 375 0 11 111 47 433 141 237 70 439 127 447 128 11 1
26 -32 54 -121z m6764 -204 c56 -16 102 -34 102 -40 0 -18 -76 -271 -115 -384
-71 -203 -261 -640 -279 -640 -11 0 -216 133 -213 139 119 221 269 604 353
904 12 46 20 58 32 54 10 -2 63 -17 120 -33z m-7342 -1072 c120 -216 306 -478
487 -684 l59 -68 -27 -32 c-15 -18 -56 -63 -91 -100 l-63 -67 -55 62 c-85 96
-198 239 -284 361 -126 178 -299 462 -289 473 19 18 212 131 218 127 4 -2 24
-35 45 -72z m5055 -956 c126 -236 229 -431 229 -435 0 -9 -190 -114 -330 -182
-174 -86 -531 -222 -543 -208 -5 5 -237 950 -237 964 0 6 39 24 88 39 130 43
308 121 434 192 62 34 117 61 122 60 5 -1 112 -195 237 -430z m1247 -86 c-150
-167 -568 -512 -751 -620 l-35 -21 -62 117 c-62 116 -62 118 -42 133 11 9 76
56 145 104 157 111 361 283 497 421 l105 107 91 -98 92 -98 -40 -45z m-5564
92 c155 -151 354 -315 516 -425 l106 -71 -60 -113 c-33 -62 -64 -113 -70 -113
-12 0 -166 105 -271 184 -137 104 -305 249 -429 370 l-119 117 44 47 c114 122
134 142 138 142 2 0 68 -62 145 -138z m2044 89 c134 -31 288 -52 432 -59 l125
-7 3 -504 2 -504 -147 6 c-181 8 -352 29 -544 68 -203 41 -251 56 -245 77 3 9
53 211 111 447 138 562 122 508 148 502 12 -2 64 -14 115 -26z m-1283 -667
c196 -115 505 -254 733 -329 75 -24 83 -29 78 -49 -3 -11 -17 -71 -31 -132
l-26 -112 -66 20 c-100 30 -305 109 -444 172 -114 52 -373 188 -429 226 l-23
16 30 54 c16 30 45 83 64 118 18 34 34 62 35 62 2 0 37 -20 79 -46z"/>
</g>
</svg>
